<svg width="32" height="33" viewBox="0 0 32 33" fill="none" xmlns="http://www.w3.org/2000/svg">
<path d="M22.7342 27.54C21.4275 28.8067 20.0009 28.6067 18.6275 28.0067C17.1742 27.3933 15.8409 27.3667 14.3075 28.0067C12.3875 28.8333 11.3742 28.5933 10.2275 27.54C3.72087 20.8333 4.68087 10.62 12.0675 10.2467C13.8675 10.34 15.1209 11.2333 16.1742 11.3133C17.7475 10.9933 19.2542 10.0733 20.9342 10.1933C22.9475 10.3533 24.4675 11.1533 25.4675 12.5933C21.3075 15.0867 22.2942 20.5667 26.1075 22.1C25.3475 24.1 24.3609 26.0867 22.7209 27.5533L22.7342 27.54ZM16.0409 10.1667C15.8409 7.19333 18.2542 4.74 21.0275 4.5C21.4142 7.94 17.9075 10.5 16.0409 10.1667Z" fill="#020330"/>
</svg>
