<svg width="22" height="22" viewBox="0 0 22 22" fill="none" xmlns="http://www.w3.org/2000/svg">
    <path
        d="M21.1292 10.0253H11.1951V12.9828H18.2476C17.8901 17.1103 14.4559 18.8762 11.2059 18.8762C7.05672 18.8762 3.41672 15.6045 3.41672 11.0003C3.41672 6.55866 6.88339 3.12449 11.2167 3.12449C14.5642 3.12449 16.5251 5.25866 16.5251 5.25866L18.5834 3.11366C18.5834 3.11366 15.9401 0.166992 11.1084 0.166992C4.95505 0.166992 0.199219 5.36699 0.199219 11.0003C0.199219 16.4712 4.67339 21.8337 11.2709 21.8337C17.0667 21.8337 21.2917 17.8578 21.2917 11.9862C21.2917 10.7403 21.1292 10.0253 21.1292 10.0253Z"
        fill="black" />
</svg>