<svg width="66" height="66" viewBox="0 0 66 66" fill="none" xmlns="http://www.w3.org/2000/svg">
<path d="M38.0971 8.65267C38.3549 8.91052 38.4997 9.26019 38.4997 9.62479C38.4997 9.98939 38.3549 10.3391 38.0971 10.5969L34.9443 13.7498L38.0971 16.9027C38.3476 17.162 38.4862 17.5093 38.4831 17.8698C38.4799 18.2304 38.3353 18.5752 38.0804 18.8302C37.8254 19.0851 37.4806 19.2297 37.1201 19.2328C36.7595 19.236 36.4122 19.0974 36.1529 18.8469L33 15.694L29.8471 18.8469C29.7194 18.9746 29.5677 19.0758 29.4008 19.1449C29.234 19.2139 29.0551 19.2494 28.8745 19.2494C28.6939 19.2493 28.5151 19.2137 28.3483 19.1445C28.1814 19.0753 28.0298 18.974 27.9022 18.8462C27.7745 18.7185 27.6733 18.5668 27.6042 18.4C27.5352 18.2331 27.4997 18.0542 27.4997 17.8736C27.4998 17.693 27.5354 17.5142 27.6046 17.3474C27.6738 17.1805 27.7751 17.029 27.9029 16.9013L31.0558 13.7498L27.9029 10.5969C27.7752 10.4692 27.674 10.3175 27.6049 10.1506C27.5359 9.98376 27.5003 9.80491 27.5004 9.6243C27.5005 9.4437 27.5361 9.26488 27.6053 9.09804C27.6745 8.93121 27.7758 8.77964 27.9036 8.65198C28.0313 8.52432 28.183 8.42307 28.3498 8.35401C28.5167 8.28496 28.6956 8.24945 28.8762 8.24951C29.0568 8.24958 29.2356 8.28521 29.4024 8.35438C29.5693 8.42356 29.7208 8.52491 29.8485 8.65267L33 11.8055L36.1529 8.65267C36.4107 8.39489 36.7604 8.25008 37.125 8.25008C37.4896 8.25008 37.8393 8.39489 38.0971 8.65267ZM26.3973 45.0008C27.3179 45.3076 28.3097 45.3289 29.2427 45.0619C30.1756 44.7949 31.006 44.2521 31.625 43.5048V57.7814L15.125 51.5623V41.2443L26.3973 45.0008Z" fill="#03045E"/>
<path fill-rule="evenodd" clip-rule="evenodd" d="M50.8745 51.5625L34.3745 57.7816V43.505C34.9935 44.2523 35.8239 44.7951 36.7569 45.0621C37.6898 45.329 38.6817 45.3077 39.6023 45.001L50.8745 41.2445V51.5625ZM45.809 48.7423C46.1551 48.6271 46.4412 48.3791 46.6045 48.0529C46.7677 47.7267 46.7946 47.349 46.6794 47.003C46.5642 46.6569 46.3162 46.3708 45.99 46.2075C45.6638 46.0443 45.2861 46.0174 44.94 46.1326L38.7525 48.1951C38.4065 48.3103 38.1203 48.5583 37.9571 48.8845C37.7939 49.2107 37.7669 49.5884 37.8822 49.9345C37.9974 50.2805 38.2454 50.5667 38.5716 50.7299C38.8978 50.8931 39.2755 50.9201 39.6215 50.8048L45.809 48.7423ZM33.4492 20.7006C33.1579 20.5998 32.8412 20.5998 32.5499 20.7006L14.6777 26.8881L14.646 26.8977C14.4056 26.9868 14.195 27.1417 14.0383 27.3446L8.55203 34.2031C8.41346 34.376 8.31873 34.5798 8.27592 34.7973C8.2331 35.0147 8.24346 35.2392 8.30611 35.4517C8.36877 35.6643 8.48186 35.8585 8.63577 36.018C8.78967 36.1774 8.97982 36.2972 9.19003 36.3673L27.7525 42.5548C28.0336 42.6483 28.3374 42.6484 28.6186 42.5553C28.8998 42.4621 29.1434 42.2806 29.3132 42.0378L32.9995 36.7716L36.6845 42.0378C36.8543 42.2809 37.0982 42.4626 37.3797 42.5558C37.6612 42.6489 37.9652 42.6486 38.2465 42.5548L56.809 36.3673C57.0194 36.2974 57.2096 36.1777 57.3637 36.0183C57.5178 35.859 57.631 35.6647 57.6938 35.4522C57.7566 35.2396 57.7671 35.015 57.7244 34.7975C57.6816 34.58 57.587 34.3761 57.4484 34.2031L51.9622 27.3446C51.7981 27.1325 51.5753 26.9732 51.3214 26.8867L33.4492 20.7006ZM32.9995 32.9202L46.6712 28.1875L32.9995 23.4547L19.3279 28.1875L32.9995 32.9202Z" fill="#03045E"/>
</svg>
