<svg width="56" height="56" viewBox="0 0 56 56" fill="none" xmlns="http://www.w3.org/2000/svg">
<path d="M18.6667 28.0002C21.142 28.0002 23.516 27.0168 25.2663 25.2665C27.0167 23.5162 28 21.1422 28 18.6668C28 16.1915 27.0167 13.8175 25.2663 12.0672C23.516 10.3168 21.142 9.3335 18.6667 9.3335C16.1913 9.3335 13.8173 10.3168 12.067 12.0672C10.3167 13.8175 9.33333 16.1915 9.33333 18.6668C9.33333 21.1422 10.3167 23.5162 12.067 25.2665C13.8173 27.0168 16.1913 28.0002 18.6667 28.0002ZM39.6667 28.0002C41.5232 28.0002 43.3037 27.2627 44.6164 25.9499C45.9292 24.6372 46.6667 22.8567 46.6667 21.0002C46.6667 19.1436 45.9292 17.3632 44.6164 16.0504C43.3037 14.7377 41.5232 14.0002 39.6667 14.0002C37.8102 14.0002 36.0297 14.7377 34.7169 16.0504C33.4042 17.3632 32.6667 19.1436 32.6667 21.0002C32.6667 22.8567 33.4042 24.6372 34.7169 25.9499C36.0297 27.2627 37.8102 28.0002 39.6667 28.0002ZM7.875 31.5002C6.71468 31.5002 5.60188 31.9611 4.78141 32.7816C3.96094 33.602 3.5 34.7148 3.5 35.8752V37.3335C3.5 37.3335 3.5 47.8335 18.6667 47.8335C33.8333 47.8335 33.8333 37.3335 33.8333 37.3335V35.8752C33.8333 34.7148 33.3724 33.602 32.5519 32.7816C31.7315 31.9611 30.6187 31.5002 29.4583 31.5002H7.875ZM33.453 44.4373C35.0583 45.0883 37.0918 45.5002 39.6655 45.5002C51.9155 45.5002 51.9155 36.1668 51.9155 36.1668V35.8752C51.9155 34.715 51.4547 33.6024 50.6345 32.782C49.8143 31.9615 48.7018 31.5005 47.5417 31.5002H34.5415C35.5906 32.7161 36.1667 34.2692 36.1643 35.8752V37.386L36.1632 37.4525C36.1563 37.679 36.1408 37.9051 36.1165 38.1303C36.0587 38.6511 35.9647 39.1672 35.8353 39.675C35.3935 41.4155 34.5809 43.04 33.453 44.4373Z" fill="#03045E"/>
</svg>
