<svg width="57" height="57" viewBox="0 0 57 57" fill="none" xmlns="http://www.w3.org/2000/svg">
<path d="M49.875 40.375H7.125V11.875H49.875M49.875 7.125H7.125C5.86522 7.125 4.65704 7.62544 3.76624 8.51624C2.87545 9.40704 2.375 10.6152 2.375 11.875V40.375C2.375 41.6348 2.87545 42.843 3.76624 43.7338C4.65704 44.6246 5.86522 45.125 7.125 45.125H19V49.875H38V45.125H49.875C51.1348 45.125 52.343 44.6246 53.2338 43.7338C54.1246 42.843 54.625 41.6348 54.625 40.375V11.875C54.625 10.6152 54.1246 9.40704 53.2338 8.51624C52.343 7.62544 51.1348 7.125 49.875 7.125Z" fill="#0CDC85"/>
</svg>
