<svg width="52" height="52" viewBox="0 0 52 52" fill="none" xmlns="http://www.w3.org/2000/svg">
<path d="M45.0066 22.0023L42.0426 13.1103C41.6127 11.8157 40.7856 10.6895 39.6791 9.89177C38.5725 9.09402 37.2426 8.66529 35.8785 8.66651H16.1228C14.7587 8.66529 13.4288 9.09402 12.3222 9.89177C11.2157 10.6895 10.3886 11.8157 9.95865 13.1103L6.99465 22.0023C6.20647 22.3321 5.53337 22.8876 5.05996 23.5988C4.58656 24.3101 4.33398 25.1454 4.33398 25.9998V36.8332C4.33398 38.4322 5.20932 39.8145 6.50065 40.5663V45.4998C6.50065 46.0745 6.72892 46.6256 7.13525 47.0319C7.54158 47.4382 8.09268 47.6665 8.66732 47.6665H10.834C11.4086 47.6665 11.9597 47.4382 12.366 47.0319C12.7724 46.6256 13.0007 46.0745 13.0007 45.4998V41.1665H39.0006V45.4998C39.0006 46.0745 39.2289 46.6256 39.6353 47.0319C40.0416 47.4382 40.5927 47.6665 41.1673 47.6665H43.334C43.9086 47.6665 44.4597 47.4382 44.866 47.0319C45.2724 46.6256 45.5006 46.0745 45.5006 45.4998V40.5663C46.158 40.1894 46.7044 39.6458 47.0848 38.9904C47.4651 38.335 47.6661 37.5909 47.6673 36.8332V25.9998C47.6673 25.1454 47.4147 24.3101 46.9413 23.5988C46.4679 22.8876 45.7948 22.3321 45.0066 22.0023ZM16.1228 12.9998H35.8763C36.8102 12.9998 37.6378 13.5935 37.9325 14.4818L40.3288 21.6665H11.6725L14.0667 14.4818C14.2104 14.0502 14.4864 13.6748 14.8554 13.4088C15.2245 13.1428 15.6679 12.9997 16.1228 12.9998ZM11.9173 34.6665C11.4904 34.6664 11.0676 34.5821 10.6733 34.4186C10.2789 34.2551 9.92056 34.0155 9.61877 33.7135C9.31698 33.4115 9.07763 33.0531 8.91438 32.6586C8.75113 32.2641 8.66718 31.8413 8.66732 31.4143C8.66746 30.9874 8.75169 30.5647 8.91521 30.1703C9.07872 29.7759 9.31831 29.4176 9.6203 29.1158C9.9223 28.814 10.2808 28.5746 10.6753 28.4114C11.0698 28.2481 11.4925 28.1642 11.9195 28.1643C12.7817 28.1646 13.6085 28.5074 14.218 29.1173C14.8275 29.7272 15.1698 30.5543 15.1695 31.4165C15.1692 32.2787 14.8264 33.1056 14.2165 33.7151C13.6066 34.3245 12.7796 34.6668 11.9173 34.6665ZM40.084 34.6665C39.657 34.6664 39.2343 34.5821 38.8399 34.4186C38.4455 34.2551 38.0872 34.0155 37.7854 33.7135C37.4836 33.4115 37.2443 33.0531 37.081 32.6586C36.9178 32.2641 36.8338 31.8413 36.834 31.4143C36.8341 30.9874 36.9184 30.5647 37.0819 30.1703C37.2454 29.7759 37.485 29.4176 37.787 29.1158C38.089 28.814 38.4474 28.5746 38.8419 28.4114C39.2364 28.2481 39.6592 28.1642 40.0861 28.1643C40.9484 28.1646 41.7752 28.5074 42.3847 29.1173C42.9942 29.7272 43.3364 30.5543 43.3361 31.4165C43.3359 32.2787 42.9931 33.1056 42.3832 33.7151C41.7733 34.3245 40.9462 34.6668 40.084 34.6665Z" fill="#03045E"/>
</svg>
