<svg width="52" height="52" viewBox="0 0 52 52" fill="none" xmlns="http://www.w3.org/2000/svg">
<path fill-rule="evenodd" clip-rule="evenodd" d="M26.0007 8.66683C22.969 8.66627 19.9902 9.46089 17.3616 10.9714C14.7329 12.4818 12.5465 14.6553 11.0204 17.2749C9.49428 19.8945 8.68195 22.8685 8.66445 25.9001C8.64696 28.9318 9.42492 31.915 10.9207 34.552C11.9317 33.2381 13.2313 32.1743 14.719 31.4428C16.2068 30.7113 17.8428 30.3318 19.5007 30.3335H32.5007C34.1585 30.3318 35.7946 30.7113 37.2823 31.4428C38.7701 32.1743 40.0697 33.2381 41.0807 34.552C42.5764 31.915 43.3544 28.9318 43.3369 25.9001C43.3194 22.8685 42.5071 19.8945 40.981 17.2749C39.4549 14.6553 37.2684 12.4818 34.6398 10.9714C32.0112 9.46089 29.0324 8.66627 26.0007 8.66683ZM43.2105 39.1648C46.1074 35.3883 47.6743 30.7598 47.6673 26.0002C47.6673 14.0337 37.9672 4.3335 26.0007 4.3335C14.0342 4.3335 4.33401 14.0337 4.33401 26.0002C4.32686 30.7599 5.8938 35.3883 8.79084 39.1648L8.78001 39.2038L9.54918 40.0987C11.5813 42.4744 14.1043 44.3813 16.9445 45.6879C19.7847 46.9944 22.8744 47.6696 26.0007 47.6668C30.3932 47.6749 34.6834 46.3406 38.2965 43.8427C39.8368 42.7784 41.2336 41.52 42.4522 40.0987L43.2213 39.2038L43.2105 39.1648ZM26.0007 13.0002C24.2768 13.0002 22.6235 13.685 21.4045 14.904C20.1855 16.123 19.5007 17.7763 19.5007 19.5002C19.5007 21.2241 20.1855 22.8774 21.4045 24.0964C22.6235 25.3153 24.2768 26.0002 26.0007 26.0002C27.7246 26.0002 29.3779 25.3153 30.5969 24.0964C31.8159 22.8774 32.5007 21.2241 32.5007 19.5002C32.5007 17.7763 31.8159 16.123 30.5969 14.904C29.3779 13.685 27.7246 13.0002 26.0007 13.0002Z" fill="#03045E"/>
</svg>
