<svg width="58" height="58" viewBox="0 0 58 58" fill="none" xmlns="http://www.w3.org/2000/svg">
<path d="M29.0006 4.8335C42.3479 4.8335 53.1673 15.6529 53.1673 29.0002C53.1673 42.3474 42.3479 53.1668 29.0006 53.1668C15.6534 53.1668 4.83398 42.3474 4.83398 29.0002C4.83398 15.6529 15.6534 4.8335 29.0006 4.8335ZM37.7006 17.4002C37.4468 17.2097 37.1579 17.0712 36.8504 16.9924C36.543 16.9137 36.2231 16.8962 35.9089 16.9411C35.5947 16.986 35.2925 17.0923 35.0194 17.254C34.7463 17.4157 34.5077 17.6296 34.3173 17.8835L29.0006 24.9716L23.684 17.8835C23.4936 17.6296 23.255 17.4157 22.9819 17.254C22.7088 17.0923 22.4066 16.986 22.0924 16.9411C21.7782 16.8962 21.4583 16.9137 21.1509 16.9924C20.8434 17.0712 20.5545 17.2097 20.3006 17.4002C20.0468 17.5906 19.8329 17.8291 19.6712 18.1022C19.5095 18.3753 19.4032 18.6776 19.3583 18.9917C19.3134 19.3059 19.3308 19.6258 19.4096 19.9333C19.4884 20.2407 19.6269 20.5296 19.8173 20.7835L25.9798 29.0002L19.8173 37.2168C19.4328 37.7296 19.2676 38.3741 19.3583 39.0086C19.4489 39.6431 19.7879 40.2156 20.3006 40.6002C20.8134 40.9847 21.4579 41.1498 22.0924 41.0592C22.7269 40.9686 23.2994 40.6296 23.684 40.1168L29.0006 33.0287L34.3173 40.1168C34.7019 40.6296 35.2744 40.9686 35.9089 41.0592C36.5434 41.1498 37.1879 40.9847 37.7006 40.6002C38.2134 40.2156 38.5524 39.6431 38.643 39.0086C38.7337 38.3741 38.5685 37.7296 38.184 37.2168L32.0215 29.0002L38.184 20.7835C38.3744 20.5296 38.5129 20.2407 38.5917 19.9333C38.6705 19.6258 38.6879 19.3059 38.643 18.9917C38.5981 18.6776 38.4918 18.3753 38.3301 18.1022C38.1684 17.8291 37.9545 17.5906 37.7006 17.4002Z" fill="#03045E"/>
</svg>
