<svg width="58" height="58" viewBox="0 0 58 58" fill="none" xmlns="http://www.w3.org/2000/svg">
<path d="M12.8897 13.2109H38.6674V15.7887H12.8897V13.2109ZM12.8897 26.0998H25.9171V28.6776H12.8897V26.0998ZM37.6653 19.6554H12.8897V22.2332H35.0892L37.6653 19.6554ZM20.6133 46.8381C21.0465 47.3347 21.5963 47.716 22.2132 47.9478C22.8302 48.1795 23.4951 48.2543 24.1481 48.1656H36.7212C37.0203 48.1656 37.3072 48.0468 37.5187 47.8353C37.7302 47.6238 37.849 47.3369 37.849 47.0378C37.849 46.7387 37.7302 46.4519 37.5187 46.2404C37.3072 46.0289 37.0203 45.91 36.7212 45.91H24.1481C22.6804 45.8843 22.9414 44.6099 23.1476 44.2152C23.4165 43.7519 23.6259 43.2566 23.7711 42.741C23.8674 42.3261 23.822 41.891 23.6421 41.5049C23.4623 41.1189 23.1583 40.8042 22.7787 40.6111C22.1688 40.3363 21.4856 40.269 20.8338 40.4194C20.1821 40.5699 19.5975 40.9298 19.1698 41.4441C18.6155 42.016 17.8454 42.8908 17.1075 43.7415C17.5635 41.9548 18.1548 39.6622 18.7348 37.4259C18.901 36.9164 18.8679 36.3628 18.6422 35.8767C18.4164 35.3906 18.0149 35.0081 17.5184 34.8063C16.9685 34.6176 16.3676 34.6446 15.8368 34.8817C15.3061 35.1188 14.885 35.5484 14.6587 36.0839C13.9627 37.4227 8.45265 46.656 8.39788 46.7494C8.32192 46.8766 8.27175 47.0175 8.25024 47.164C8.22873 47.3106 8.23629 47.4599 8.2725 47.6035C8.34561 47.8936 8.53096 48.1427 8.78776 48.2961C9.04457 48.4495 9.35179 48.4946 9.64185 48.4215C9.9319 48.3484 10.181 48.163 10.3344 47.9062C10.5407 47.5598 14.939 40.1922 16.3262 37.732C15.2822 41.7598 14.1318 46.2419 14.0642 46.6447C13.988 46.9408 14.0108 47.2538 14.1293 47.5357C14.2477 47.8176 14.4551 48.053 14.7199 48.2059C15.0148 48.3521 15.35 48.3961 15.6726 48.3307C15.9953 48.2654 16.287 48.0945 16.5018 47.845C16.7048 47.6613 17.085 47.2247 18.0436 46.1114C18.9367 45.061 19.8515 44.0291 20.7873 43.0165C21.1385 42.6459 21.3512 42.8103 21.145 43.1744C20.7416 43.6841 20.48 44.2914 20.3866 44.9347C20.2933 45.5781 20.3715 46.2346 20.6133 46.8381Z" fill="#03045E"/>
<path d="M45.1115 34.953V51.5555H6.44488V6.44439H45.1115V14.4887L47.2543 12.3459C47.5842 12.0206 47.9458 11.7291 48.3338 11.4759V4.83328C48.3338 4.40599 48.164 3.99619 47.8619 3.69405C47.5597 3.39191 47.1499 3.22217 46.7227 3.22217H4.83377C4.40647 3.22217 3.99668 3.39191 3.69454 3.69405C3.3924 3.99619 3.22266 4.40599 3.22266 4.83328V53.1666C3.22266 53.5939 3.3924 54.0037 3.69454 54.3058C3.99668 54.608 4.40647 54.7777 4.83377 54.7777H46.7227C47.1499 54.7777 47.5597 54.608 47.8619 54.3058C48.164 54.0037 48.3338 53.5939 48.3338 53.1666V34.5212C47.3456 35.0449 46.2027 35.198 45.1115 34.953Z" fill="#03045E"/>
<path d="M54.9845 19.1092L54.1419 18.2666C54.5725 17.6975 54.7906 16.9957 54.7582 16.2828C54.7258 15.5698 54.4451 14.8906 53.9647 14.3629C53.341 13.8132 52.5255 13.5323 51.6957 13.5811C50.8658 13.63 50.0889 14.0048 49.5341 14.6239L29.355 34.7998L28.0065 39.8619C27.9851 39.9282 27.9825 39.999 27.999 40.0666C28.0154 40.1343 28.0502 40.196 28.0996 40.2451C28.149 40.2941 28.211 40.3285 28.2787 40.3445C28.3464 40.3605 28.4173 40.3574 28.4833 40.3356L33.5277 38.971L52.3648 20.1339L53.1607 20.9314C53.2163 20.9869 53.2604 21.0528 53.2905 21.1254C53.3206 21.198 53.3361 21.2758 53.3361 21.3543C53.3361 21.4329 53.3206 21.5107 53.2905 21.5832C53.2604 21.6558 53.2163 21.7217 53.1607 21.7772L45.2389 29.6991C44.9973 29.9409 44.8616 30.2688 44.8617 30.6107C44.8619 30.9526 44.9979 31.2804 45.2397 31.522C45.4816 31.7637 45.8095 31.8993 46.1514 31.8992C46.4932 31.899 46.821 31.7631 47.0627 31.5212L54.9845 23.5994C55.5799 23.0036 55.9144 22.1958 55.9144 21.3535C55.9144 20.5112 55.5799 19.7034 54.9845 19.1076" fill="#03045E"/>
</svg>
