<svg width="47" height="54" viewBox="0 0 47 54" fill="none" xmlns="http://www.w3.org/2000/svg">
<g clip-path="url(#clip0_372_561)">
<path d="M35.2514 13.5C35.2514 10.3887 33.5518 7.69922 31.0549 6.2332V27H26.0192V5.0625H20.9835V27H15.9478V6.2332C13.4509 7.69922 11.7514 10.3887 11.7514 13.5V27H6.71566V13.5C6.71566 6.04336 12.727 0 20.1442 0H26.8585C34.2757 0 40.2871 6.04336 40.2871 13.5V27H35.2514V13.5ZM0.179722 36.0598L1.30227 32.6848C1.76387 31.3031 3.04378 30.375 4.49155 30.375H42.5217C43.9695 30.375 45.2494 31.3031 45.711 32.6848L46.8335 36.0598C47.5469 38.243 45.9313 40.5 43.6442 40.5V52.3125C43.6442 53.2406 42.8889 54 41.9657 54H38.6085C37.6853 54 36.9299 53.2406 36.9299 52.3125V40.5H10.0728V52.3125C10.0728 53.2406 9.31744 54 8.39423 54H5.03709C4.11387 54 3.35852 53.2406 3.35852 52.3125V40.5C1.07146 40.5 -0.544163 38.243 0.179722 36.0598Z" fill="#03045E"/>
</g>
<defs>
<clipPath id="clip0_372_561">
<rect width="47" height="54" fill="white" transform="matrix(-1 0 0 1 47 0)"/>
</clipPath>
</defs>
</svg>
