<svg width="26" height="26" viewBox="0 0 26 26" fill="none" xmlns="http://www.w3.org/2000/svg">
<path d="M14.1136 2.16699C15.3324 2.17024 15.951 2.17674 16.4851 2.19191L16.6952 2.19949C16.9379 2.20816 17.1773 2.21899 17.4666 2.23199C18.6192 2.28616 19.4057 2.46816 20.0958 2.73574C20.8108 3.01091 21.4131 3.38358 22.0155 3.98483C22.5663 4.52638 22.9926 5.18146 23.2646 5.90449C23.5321 6.59458 23.7141 7.38108 23.7683 8.53483C23.7813 8.82299 23.7921 9.06241 23.8008 9.30616L23.8073 9.51633C23.8236 10.0493 23.8301 10.6679 23.8322 11.8867L23.8333 12.6948V14.114C23.836 14.9042 23.8277 15.6944 23.8084 16.4843L23.8019 16.6945C23.7932 16.9382 23.7824 17.1777 23.7694 17.4658C23.7152 18.6196 23.5311 19.405 23.2646 20.0962C22.9934 20.8196 22.567 21.4748 22.0155 22.0158C21.4738 22.5665 20.8187 22.9927 20.0958 23.2649C19.4057 23.5325 18.6192 23.7145 17.4666 23.7687C17.2095 23.7808 16.9524 23.7916 16.6952 23.8012L16.4851 23.8077C15.951 23.8228 15.3324 23.8304 14.1136 23.8326L13.3055 23.8337H11.8874C11.0968 23.8364 10.3063 23.8281 9.51597 23.8087L9.30581 23.8022C9.04864 23.7925 8.79152 23.7813 8.53447 23.7687C7.38181 23.7145 6.59531 23.5325 5.90414 23.2649C5.1812 22.9934 4.52638 22.5671 3.98556 22.0158C3.43419 21.4745 3.00755 20.8193 2.73539 20.0962C2.46781 19.4061 2.28581 18.6196 2.23164 17.4658C2.21957 17.2088 2.20874 16.9517 2.19914 16.6945L2.19372 16.4843C2.17376 15.6944 2.16473 14.9042 2.16664 14.114V11.8867C2.16362 11.0965 2.17156 10.3063 2.19047 9.51633L2.19806 9.30616C2.20672 9.06241 2.21756 8.82299 2.23056 8.53483C2.28472 7.38108 2.46672 6.59566 2.73431 5.90449C3.00635 5.18072 3.43384 4.52543 3.98664 3.98483C4.52732 3.43392 5.18171 3.00764 5.90414 2.73574C6.59531 2.46816 7.38072 2.28616 8.53447 2.23199C8.82264 2.21899 9.06314 2.20816 9.30581 2.19949L9.51597 2.19299C10.3059 2.17374 11.0961 2.16544 11.8863 2.16808L14.1136 2.16699ZM13 7.58366C11.5634 7.58366 10.1856 8.15434 9.16981 9.17016C8.15399 10.186 7.58331 11.5637 7.58331 13.0003C7.58331 14.4369 8.15399 15.8147 9.16981 16.8305C10.1856 17.8463 11.5634 18.417 13 18.417C14.4366 18.417 15.8143 17.8463 16.8301 16.8305C17.846 15.8147 18.4166 14.4369 18.4166 13.0003C18.4166 11.5637 17.846 10.186 16.8301 9.17016C15.8143 8.15434 14.4366 7.58366 13 7.58366ZM13 9.75033C13.4268 9.75025 13.8494 9.83425 14.2437 9.99751C14.6381 10.1608 14.9964 10.4001 15.2982 10.7018C15.6001 11.0036 15.8395 11.3618 16.0029 11.7561C16.1663 12.1504 16.2504 12.573 16.2505 12.9998C16.2506 13.4266 16.1666 13.8492 16.0033 14.2435C15.8401 14.6379 15.6007 14.9962 15.299 15.298C14.9973 15.5999 14.639 15.8393 14.2447 16.0027C13.8505 16.1661 13.4279 16.2503 13.0011 16.2503C12.1391 16.2503 11.3125 15.9079 10.703 15.2984C10.0935 14.6889 9.75106 13.8623 9.75106 13.0003C9.75106 12.1384 10.0935 11.3117 10.703 10.7022C11.3125 10.0927 12.1391 9.75033 13.0011 9.75033M18.6886 5.95866C18.3294 5.95866 17.985 6.10133 17.731 6.35529C17.4771 6.60924 17.3344 6.95368 17.3344 7.31283C17.3344 7.67197 17.4771 8.01641 17.731 8.27037C17.985 8.52432 18.3294 8.66699 18.6886 8.66699C19.0477 8.66699 19.3921 8.52432 19.6461 8.27037C19.9001 8.01641 20.0427 7.67197 20.0427 7.31283C20.0427 6.95368 19.9001 6.60924 19.6461 6.35529C19.3921 6.10133 19.0477 5.95866 18.6886 5.95866Z" fill="white"/>
</svg>
