<svg width="32" height="30" viewBox="0 0 32 30" fill="none" xmlns="http://www.w3.org/2000/svg">
<path d="M21.4141 26.9325C21.789 26.5809 21.9997 26.104 21.9997 25.6068C21.9997 25.1097 21.789 24.6328 21.4141 24.2812L11.5141 15L21.4141 5.71872C21.7784 5.36509 21.98 4.89146 21.9754 4.39984C21.9709 3.90822 21.7605 3.43795 21.3897 3.09031C21.0189 2.74267 20.5173 2.54548 19.9929 2.54121C19.4685 2.53694 18.9633 2.72592 18.5861 3.06747L7.2721 13.6743C6.89715 14.026 6.68652 14.5028 6.68652 15C6.68652 15.4972 6.89715 15.974 7.2721 16.3256L18.5861 26.9325C18.9612 27.284 19.4698 27.4814 20.0001 27.4814C20.5304 27.4814 21.039 27.284 21.4141 26.9325Z" fill="#020330"/>
</svg>
