<svg width="31" height="30" viewBox="0 0 31 30" fill="none" xmlns="http://www.w3.org/2000/svg">
<path fill-rule="evenodd" clip-rule="evenodd" d="M10.3333 8.75C10.3333 7.42392 10.8777 6.15215 11.8466 5.21447C12.8156 4.27678 14.1297 3.75 15.5 3.75C16.8703 3.75 18.1844 4.27678 19.1534 5.21447C20.1223 6.15215 20.6667 7.42392 20.6667 8.75C20.6667 10.0761 20.1223 11.3479 19.1534 12.2855C18.1844 13.2232 16.8703 13.75 15.5 13.75C14.1297 13.75 12.8156 13.2232 11.8466 12.2855C10.8777 11.3479 10.3333 10.0761 10.3333 8.75ZM10.3333 16.25C8.62048 16.25 6.97777 16.9085 5.7666 18.0806C4.55543 19.2527 3.875 20.8424 3.875 22.5C3.875 23.4946 4.28326 24.4484 5.00996 25.1517C5.73666 25.8549 6.72229 26.25 7.75 26.25H23.25C24.2777 26.25 25.2633 25.8549 25.99 25.1517C26.7167 24.4484 27.125 23.4946 27.125 22.5C27.125 20.8424 26.4446 19.2527 25.2334 18.0806C24.0222 16.9085 22.3795 16.25 20.6667 16.25H10.3333Z" fill="#020330"/>
</svg>
