<svg width="89" height="89" viewBox="0 0 89 89" fill="none" xmlns="http://www.w3.org/2000/svg">
<path d="M48.6719 62.5781C48.6719 63.4032 48.4272 64.2098 47.9688 64.8959C47.5104 65.582 46.8588 66.1167 46.0965 66.4324C45.3342 66.7482 44.4954 66.8308 43.6861 66.6698C42.8769 66.5089 42.1335 66.1115 41.5501 65.5281C40.9666 64.9446 40.5693 64.2013 40.4083 63.392C40.2473 62.5828 40.3299 61.7439 40.6457 60.9816C40.9615 60.2193 41.4962 59.5677 42.1822 59.1093C42.8683 58.6509 43.6749 58.4062 44.5 58.4062C45.6065 58.4062 46.6676 58.8458 47.45 59.6282C48.2324 60.4105 48.6719 61.4717 48.6719 62.5781ZM44.5 25.0312C36.8307 25.0312 30.5938 30.6459 30.5938 37.5469V38.9375C30.5938 39.6751 30.8868 40.3826 31.4084 40.9041C31.93 41.4257 32.6374 41.7188 33.375 41.7188C34.1126 41.7188 34.8201 41.4257 35.3417 40.9041C35.8632 40.3826 36.1563 39.6751 36.1563 38.9375V37.5469C36.1563 33.7227 39.9005 30.5938 44.5 30.5938C49.0995 30.5938 52.8438 33.7227 52.8438 37.5469C52.8438 41.3711 49.0995 44.5 44.5 44.5C43.7624 44.5 43.055 44.793 42.5334 45.3146C42.0118 45.8362 41.7188 46.5436 41.7188 47.2812V50.0625C41.7188 50.8001 42.0118 51.5076 42.5334 52.0291C43.055 52.5507 43.7624 52.8438 44.5 52.8438C45.2376 52.8438 45.9451 52.5507 46.4667 52.0291C46.9882 51.5076 47.2813 50.8001 47.2813 50.0625V49.8122C53.6225 48.6475 58.4063 43.5891 58.4063 37.5469C58.4063 30.6459 52.1693 25.0312 44.5 25.0312ZM80.6563 44.5C80.6563 51.651 78.5357 58.6415 74.5628 64.5873C70.5899 70.5332 64.9431 75.1674 58.3364 77.904C51.7297 80.6406 44.4599 81.3566 37.4463 79.9615C30.4327 78.5664 23.9902 75.1229 18.9337 70.0663C13.8771 65.0098 10.4336 58.5674 9.0385 51.5537C7.6434 44.5401 8.35942 37.2703 11.096 30.6636C13.8326 24.0569 18.4668 18.4101 24.4127 14.4372C30.3585 10.4643 37.349 8.34375 44.5 8.34375C54.0861 8.35387 63.2767 12.1664 70.0552 18.9449C76.8336 25.7233 80.6461 34.9139 80.6563 44.5ZM75.0938 44.5C75.0938 38.4491 73.2995 32.5341 69.9378 27.503C66.5761 22.4719 61.798 18.5506 56.2077 16.2351C50.6175 13.9195 44.4661 13.3136 38.5315 14.4941C32.5969 15.6746 27.1456 18.5883 22.867 22.867C18.5884 27.1456 15.6746 32.5968 14.4941 38.5315C13.3136 44.4661 13.9195 50.6174 16.2351 56.2077C18.5506 61.798 22.4719 66.5761 27.503 69.9378C32.5342 73.2995 38.4491 75.0938 44.5 75.0938C52.6112 75.0845 60.3875 71.8583 66.1229 66.1229C71.8583 60.3874 75.0846 52.6111 75.0938 44.5Z" fill="#231C35"/>
</svg>
