<svg width="20" height="18" viewBox="0 0 20 18" fill="none" xmlns="http://www.w3.org/2000/svg">
<g clip-path="url(#clip0_398_341)">
<path d="M14.4459 11.6369C15.6371 10.1504 16.1707 8.30742 15.9398 6.47666C15.7089 4.6459 14.7306 2.96237 13.2006 1.76289C11.6705 0.563405 9.70167 -0.0635771 7.68784 0.00738022C5.67401 0.0783375 3.76373 0.842001 2.33919 2.14559C0.914646 3.44918 0.0808954 5.19655 0.0047399 7.03813C-0.0714156 8.87971 0.61564 10.6797 1.92845 12.0779C3.24126 13.4762 5.08301 14.3696 7.08524 14.5794C9.08746 14.7892 11.1025 14.3 12.7272 13.2096H12.726C12.7621 13.2546 12.8022 13.2977 12.8465 13.339L17.583 17.6702C17.8137 17.8813 18.1267 18 18.453 18.0001C18.7794 18.0002 19.0924 17.8818 19.3233 17.6708C19.5541 17.4599 19.6839 17.1737 19.684 16.8753C19.6841 16.5768 19.5546 16.2906 19.3239 16.0795L14.5874 11.7482C14.5434 11.7075 14.4961 11.671 14.4459 11.6369ZM14.7633 7.31237C14.7633 8.12492 14.5883 8.92952 14.2482 9.68022C13.9082 10.4309 13.4098 11.113 12.7814 11.6876C12.1531 12.2622 11.4072 12.7179 10.5862 13.0289C9.7653 13.3398 8.88542 13.4999 7.99684 13.4999C7.10826 13.4999 6.22837 13.3398 5.40743 13.0289C4.58649 12.7179 3.84056 12.2622 3.21224 11.6876C2.58391 11.113 2.0855 10.4309 1.74546 9.68022C1.40541 8.92952 1.23039 8.12492 1.23039 7.31237C1.23039 5.67134 1.94328 4.09753 3.21224 2.93715C4.48119 1.77676 6.20226 1.12487 7.99684 1.12487C9.79141 1.12487 11.5125 1.77676 12.7814 2.93715C14.0504 4.09753 14.7633 5.67134 14.7633 7.31237Z" fill="white"/>
</g>
<defs>
<clipPath id="clip0_398_341">
<rect width="19.6842" height="18" fill="white"/>
</clipPath>
</defs>
</svg>
