<svg width="34" height="34" viewBox="0 0 34 34" fill="none" xmlns="http://www.w3.org/2000/svg">
<path d="M14.1663 22.6667V21.25H4.26384L4.24967 26.9167C4.24967 28.4892 5.51051 29.75 7.08301 29.75H26.9163C28.4888 29.75 29.7497 28.4892 29.7497 26.9167V21.25H19.833V22.6667H14.1663ZM28.333 9.91667H22.6522V7.08333L19.8188 4.25H14.1522L11.3188 7.08333V9.91667H5.66634C4.10801 9.91667 2.83301 11.1917 2.83301 12.75V17C2.83301 18.5725 4.09384 19.8333 5.66634 19.8333H14.1663V17H19.833V19.8333H28.333C29.8913 19.8333 31.1663 18.5583 31.1663 17V12.75C31.1663 11.1917 29.8913 9.91667 28.333 9.91667ZM19.833 9.91667H14.1663V7.08333H19.833V9.91667Z" fill="#231C35"/>
</svg>
