<svg width="32" height="33" viewBox="0 0 32 33" fill="none" xmlns="http://www.w3.org/2000/svg">
<path d="M23.866 15.0337C19.5993 12.5003 12.466 12.2337 8.39935 13.5003C7.73268 13.7003 7.06602 13.3003 6.86602 12.7003C6.66602 12.0337 7.06602 11.367 7.66602 11.167C12.3993 9.76699 20.1993 10.0337 25.1327 12.967C25.7327 13.3003 25.9327 14.1003 25.5993 14.7003C25.266 15.167 24.466 15.367 23.866 15.0337ZM23.7327 18.767C23.3993 19.2337 22.7993 19.4337 22.3327 19.1003C18.7327 16.9003 13.266 16.2337 9.06602 17.567C8.53268 17.7003 7.93268 17.4337 7.79935 16.9003C7.66602 16.367 7.93268 15.767 8.46602 15.6337C13.3327 14.167 19.3327 14.9003 23.466 17.4337C23.866 17.6337 24.066 18.3003 23.7327 18.767ZM22.1327 22.4337C21.866 22.8337 21.3993 22.967 20.9993 22.7003C17.866 20.767 13.9327 20.367 9.26602 21.4337C8.79935 21.567 8.39935 21.2337 8.26602 20.8337C8.13268 20.367 8.46602 19.967 8.86602 19.8337C13.9327 18.7003 18.3327 19.167 21.7993 21.3003C22.266 21.5003 22.3327 22.0337 22.1327 22.4337ZM15.9993 3.16699C14.2484 3.16699 12.5146 3.51187 10.8969 4.18193C9.27923 4.85199 7.80937 5.83412 6.57126 7.07223C4.07077 9.57272 2.66602 12.9641 2.66602 16.5003C2.66602 20.0365 4.07077 23.4279 6.57126 25.9284C7.80937 27.1665 9.27923 28.1487 10.8969 28.8187C12.5146 29.4888 14.2484 29.8337 15.9993 29.8337C19.5356 29.8337 22.927 28.4289 25.4274 25.9284C27.9279 23.4279 29.3327 20.0365 29.3327 16.5003C29.3327 14.7494 28.9878 13.0156 28.3177 11.3979C27.6477 9.7802 26.6656 8.31035 25.4274 7.07223C24.1893 5.83412 22.7195 4.85199 21.1018 4.18193C19.4841 3.51187 17.7503 3.16699 15.9993 3.16699Z" fill="white"/>
</svg>
