<svg width="26" height="26" viewBox="0 0 26 26" fill="none" xmlns="http://www.w3.org/2000/svg">
<path d="M17.9825 6.305C17.242 5.45959 16.8339 4.37389 16.8342 3.25H13.4867V16.6833C13.4609 17.4103 13.154 18.0988 12.6306 18.604C12.1072 19.1092 11.4083 19.3916 10.6809 19.3917C9.14253 19.3917 7.86419 18.135 7.86419 16.575C7.86419 14.7117 9.66253 13.3142 11.515 13.8883V10.465C7.77753 9.96667 4.50586 12.87 4.50586 16.575C4.50586 20.1825 7.49586 22.75 10.67 22.75C14.0717 22.75 16.8342 19.9875 16.8342 16.575V9.76083C18.1916 10.7357 19.8213 11.2587 21.4925 11.2558V7.90833C21.4925 7.90833 19.4559 8.00583 17.9825 6.305Z" fill="white"/>
</svg>
