<svg width="26" height="22" viewBox="0 0 26 22" fill="none" xmlns="http://www.w3.org/2000/svg">
<path d="M26 3.06419C25.0247 3.48797 23.9928 3.76716 22.9369 3.89294C24.0466 3.24315 24.8811 2.21084 25.2839 0.989617C24.2348 1.6031 23.0888 2.03355 21.8953 2.26253C21.3926 1.73578 20.7882 1.31673 20.1185 1.03086C19.4489 0.744994 18.7282 0.598273 18.0001 0.599619C15.0524 0.599619 12.6669 2.95044 12.6669 5.84835C12.6648 6.25144 12.711 6.65333 12.8045 7.04543C10.6907 6.94634 8.62091 6.40712 6.72749 5.46228C4.83407 4.51744 3.15872 3.18778 1.80862 1.55837C1.33498 2.35684 1.08449 3.26788 1.08333 4.19627C1.08333 6.01627 2.03288 7.62501 3.46667 8.56751C2.61719 8.54735 1.78511 8.32252 1.04108 7.9121V7.97709C1.04108 10.5229 2.88275 12.6408 5.32025 13.1229C4.86188 13.2451 4.38954 13.307 3.91517 13.3071C3.57856 13.3077 3.24272 13.275 2.91254 13.2096C3.59017 15.295 5.56238 16.8117 7.89858 16.855C6.00025 18.318 3.66958 19.1087 1.27292 19.1029C0.847501 19.1023 0.422481 19.0769 0 19.0271C2.43814 20.5839 5.27228 21.4074 8.16508 21.3996C17.9888 21.3996 23.3556 13.3992 23.3556 6.46043C23.3556 6.23293 23.3496 6.00543 23.3388 5.78335C24.3805 5.04239 25.2816 4.12158 26 3.06419Z" fill="black"/>
</svg>
