<svg width="37" height="37" viewBox="0 0 37 37" fill="none" xmlns="http://www.w3.org/2000/svg">
<path d="M29.3685 7.56935C27.9551 6.14165 26.2716 5.00967 24.4161 4.23943C22.5606 3.46919 20.5704 3.0761 18.5614 3.0831C10.1439 3.0831 3.28349 9.94352 3.28349 18.361C3.28349 21.0589 3.99266 23.6798 5.31849 25.9923L3.16016 33.9164L11.2539 31.7889C13.4893 33.0069 16.0022 33.6544 18.5614 33.6544C26.9789 33.6544 33.8393 26.7939 33.8393 18.3764C33.8393 14.291 32.2514 10.4523 29.3685 7.56935ZM18.5614 31.0644C16.2797 31.0644 14.0443 30.4477 12.0864 29.2914L11.6239 29.0139L6.81391 30.2781L8.09349 25.5914L7.78516 25.1135C6.51751 23.0893 5.84441 20.7494 5.84266 18.361C5.84266 11.3618 11.5468 5.65768 18.546 5.65768C21.9377 5.65768 25.1289 6.98352 27.5185 9.38852C28.7017 10.5663 29.6394 11.9672 30.2771 13.51C30.9149 15.0529 31.2401 16.707 31.2339 18.3764C31.2647 25.3756 25.5606 31.0644 18.5614 31.0644ZM25.5297 21.5677C25.1443 21.3827 23.2635 20.4577 22.9243 20.3189C22.5697 20.1956 22.3231 20.1339 22.061 20.5039C21.7989 20.8894 21.0743 21.7527 20.8585 21.9994C20.6427 22.2614 20.4114 22.2923 20.026 22.0919C19.6406 21.9068 18.4072 21.4906 16.9581 20.1956C15.8172 19.1781 15.0618 17.9293 14.8306 17.5439C14.6147 17.1585 14.7997 16.9581 15.0002 16.7577C15.1697 16.5881 15.3856 16.3106 15.5706 16.0948C15.7556 15.8789 15.8327 15.7093 15.956 15.4627C16.0793 15.2006 16.0177 14.9848 15.9252 14.7998C15.8327 14.6148 15.0618 12.7339 14.7535 11.9631C14.4452 11.2231 14.1214 11.3156 13.8902 11.3002H13.1502C12.8881 11.3002 12.4872 11.3927 12.1327 11.7781C11.7935 12.1635 10.8068 13.0885 10.8068 14.9694C10.8068 16.8502 12.1789 18.6694 12.3639 18.916C12.5489 19.1781 15.0618 23.0323 18.8852 24.6819C19.7947 25.0827 20.5039 25.3139 21.0589 25.4835C21.9685 25.7764 22.801 25.7302 23.4639 25.6377C24.2039 25.5298 25.7302 24.7127 26.0385 23.8185C26.3622 22.9243 26.3622 22.1689 26.2543 21.9994C26.1464 21.8298 25.9152 21.7527 25.5297 21.5677Z" fill="#020330"/>
</svg>
