<svg width="26" height="26" viewBox="0 0 26 26" fill="none" xmlns="http://www.w3.org/2000/svg">
<path d="M10.8327 16.2493L16.4552 12.9993L10.8327 9.74935V16.2493ZM23.356 7.76685C23.4968 8.27602 23.5943 8.95852 23.6593 9.82518C23.7352 10.6918 23.7677 11.4393 23.7677 12.0893L23.8327 12.9993C23.8327 15.3718 23.6593 17.116 23.356 18.2318C23.0852 19.2068 22.4568 19.8352 21.4818 20.106C20.9727 20.2468 20.041 20.3443 18.611 20.4093C17.2027 20.4852 15.9135 20.5177 14.7218 20.5177L12.9993 20.5827C8.46018 20.5827 5.63268 20.4093 4.51685 20.106C3.54185 19.8352 2.91352 19.2068 2.64268 18.2318C2.50185 17.7227 2.40435 17.0402 2.33935 16.1735C2.26352 15.3068 2.23102 14.5593 2.23102 13.9093L2.16602 12.9993C2.16602 10.6268 2.33935 8.88268 2.64268 7.76685C2.91352 6.79185 3.54185 6.16352 4.51685 5.89268C5.02602 5.75185 5.95768 5.65435 7.38768 5.58935C8.79602 5.51352 10.0852 5.48102 11.2768 5.48102L12.9993 5.41602C17.5385 5.41602 20.366 5.58935 21.4818 5.89268C22.4568 6.16352 23.0852 6.79185 23.356 7.76685Z" fill="white"/>
</svg>
